<svg height="511pt" viewBox="-13 0 511 511.998" width="511pt" xmlns="http://www.w3.org/2000/svg"><path d="m30.777344 360.851562 282.292968-282.289062 141.144532 141.144531-282.292969 282.292969zm0 0" fill="#e2f1a1"/><path d="m422.21875 251.707031-218.292969 218.292969c-17.671875-17.671875-46.328125-17.671875-64 0l-77.148437-77.148438c17.675781-17.671874 17.675781-46.324218 0-64l218.296875-218.292968c17.671875 17.671875 46.324219 17.671875 64 0l77.144531 77.148437c-17.671875 17.671875-17.671875 46.324219 0 64zm0 0" fill="#cbe558"/><path d="m30.777344 292.292969 282.289062-282.292969 141.148438 141.148438-282.292969 282.289062zm0 0" fill="#e2f1a1"/><path d="m422.082031 183.285156-218.019531 218.019532c-17.75-17.75-46.527344-17.75-64.273438 0l-76.875-76.875c17.75-17.746094 17.75-46.523438 0-64.273438l218.019532-218.019531c17.75 17.75 46.527344 17.75 64.277344 0l76.871093 76.875c-17.746093 17.746093-17.746093 46.523437 0 64.273437zm0 0" fill="#cbe558"/><path d="m291.183594 221.71875c0 26.890625-21.796875 48.6875-48.683594 48.6875-26.890625 0-48.6875-21.796875-48.6875-48.6875 0-26.886719 21.796875-48.683594 48.6875-48.683594 26.886719 0 48.683594 21.796875 48.683594 48.683594zm0 0" fill="#e2f1a1"/><path d="m461.289062 212.636719-27.207031-27.210938 27.207031-27.207031c1.875-1.875 2.929688-4.417969 2.929688-7.070312 0-2.652344-1.054688-5.195313-2.929688-7.070313l-141.144531-141.148437c-1.875-1.875-4.417969-2.929688-7.074219-2.929688-2.652343 0-5.195312 1.054688-7.070312 2.929688l-80.792969 80.796874c-3.90625 3.902344-3.90625 10.234376 0 14.140626 3.902344 3.90625 10.234375 3.90625 14.140625 0l42.238282-42.234376c9.1875 6.367188 20.070312 9.808594 31.488281 9.808594 11.414062 0 22.296875-3.441406 31.488281-9.808594l64.035156 64.035157c-13.035156 18.875-13.035156 44.085937 0 62.960937l-205.191406 205.191406c-18.875-13.035156-44.085938-13.035156-62.960938 0l-64.035156-64.039062c6.367188-9.1875 9.808594-20.070312 9.808594-31.488281 0-11.414063-3.441406-22.300781-9.808594-31.488281l106.320313-106.320313c3.90625-3.90625 3.90625-10.238281 0-14.144531-3.902344-3.902344-10.234375-3.902344-14.140625 0l-144.882813 144.882812c-1.875 1.875-2.929687 4.417969-2.929687 7.070313 0 2.652343 1.054687 5.195312 2.929687 7.070312l27.207031 27.210938-27.207031 27.207031c-1.875 1.875-2.929687 4.417969-2.929687 7.070312 0 2.652344 1.054687 5.195313 2.929687 7.070313l141.144531 141.148437c1.953126 1.949219 4.511719 2.925782 7.074219 2.925782 2.558594 0 5.117188-.976563 7.070313-2.925782l65.726562-65.726562c3.90625-3.90625 3.90625-10.238281 0-14.144531-3.90625-3.902344-10.238281-3.902344-14.144531 0l-27.167969 27.167969c-9.1875-6.371094-20.070312-9.8125-31.484375-9.8125-11.417969 0-22.300781 3.441406-31.488281 9.8125l-64.039062-64.039063c6.328124-9.15625 9.582031-19.804687 9.769531-30.503906l46.550781 46.550781s.003906.003906.003906.003906c.003906 0 .003906 0 .003906.003906l32.128907 32.125c1.953125 1.953126 4.511719 2.929688 7.070312 2.929688 2.558594 0 5.117188-.976562 7.070313-2.929688l32.128906-32.128906h.003906l187.671875-187.679687c.195313 11.054687 3.605469 21.570312 9.789063 30.492187l-121.441406 121.4375c-3.90625 3.90625-3.90625 10.238282 0 14.144532 1.953124 1.953124 4.511718 2.929687 7.070312 2.929687s5.121094-.976563 7.070312-2.929687l160-160c3.90625-3.902344 3.90625-10.234376 0-14.136719zm-148.21875-167.195313c-6.03125 0-11.828124-1.503906-16.976562-4.320312l16.976562-16.980469 16.980469 16.980469c-5.148437 2.816406-10.945312 4.320312-16.980469 4.320312zm110.039063 88.738282 16.96875 16.96875-16.96875 16.964843c-5.738281-10.539062-5.738281-23.394531 0-33.933593zm-361.210937 141.136718c2.820312 5.148438 4.320312 10.945313 4.320312 16.976563s-1.5 11.832031-4.320312 16.980469l-16.976563-16.980469zm110.027343 191.242188c6.03125 0 11.832031 1.503906 16.976563 4.320312l-16.976563 16.980469-16.976562-16.980469c5.144531-2.816406 10.945312-4.320312 16.976562-4.320312zm-127.003906-105.703125 16.964844-16.96875c5.742187 10.542969 5.742187 23.394531 0 33.933593zm127.003906 58.441406-16.964843-16.964844c10.539062-5.742187 23.390624-5.742187 33.929687 0zm251.171875-182.613281c-2.816406-5.148438-4.320312-10.945313-4.320312-16.976563s1.503906-11.832031 4.320312-16.980469l16.980469 16.980469zm0 0"/><path d="m283.996094 180.222656c-22.882813-22.878906-60.113282-22.878906-82.996094 0-22.878906 22.882813-22.878906 60.113282 0 82.996094 11.441406 11.4375 26.46875 17.160156 41.496094 17.160156 15.03125 0 30.058594-5.722656 41.5-17.160156 22.882812-22.882812 22.882812-60.113281 0-82.996094zm-14.140625 68.851563c-15.085938 15.085937-39.628907 15.082031-54.710938 0s-15.082031-39.625 0-54.710938c7.542969-7.539062 17.449219-11.3125 27.355469-11.3125s19.8125 3.773438 27.355469 11.3125c15.082031 15.085938 15.082031 39.628907 0 54.710938zm0 0"/><path d="m310.964844 167.398438 26.773437-26.777344c3.90625-3.902344 3.90625-10.234375 0-14.140625-3.90625-3.902344-10.234375-3.90625-14.140625 0l-26.777344 26.773437c-3.90625 3.90625-3.90625 10.238282 0 14.144532 1.953126 1.953124 4.511719 2.929687 7.070313 2.929687s5.121094-.976563 7.074219-2.929687zm0 0"/><path d="m174.035156 276.042969-26.777344 26.773437c-3.902343 3.90625-3.902343 10.238282 0 14.144532 1.953126 1.953124 4.511719 2.929687 7.070313 2.929687 2.5625 0 5.121094-.976563 7.074219-2.929687l26.773437-26.777344c3.90625-3.902344 3.90625-10.234375 0-14.140625s-10.234375-3.90625-14.140625 0zm0 0"/><path d="m474.5 438h-16.226562c-5.523438 0-10 4.476562-10 10s4.476562 10 10 10h16.226562c5.523438 0 10-4.476562 10-10s-4.476562-10-10-10zm0 0"/><path d="m409.605469 438h-15.105469c-5.523438 0-10 4.476562-10 10s4.476562 10 10 10h15.105469c5.523437 0 10-4.476562 10-10s-4.476563-10-10-10zm0 0"/><path d="m434.5 398c-5.523438 0-10 4.476562-10 10v14.632812c0 5.523438 4.476562 10 10 10s10-4.476562 10-10v-14.632812c0-5.523438-4.476562-10-10-10zm0 0"/><path d="m434.5 466.214844c-5.523438 0-10 4.480468-10 10v11.785156c0 5.523438 4.476562 10 10 10s10-4.476562 10-10v-11.785156c0-5.523438-4.476562-10-10-10zm0 0"/><path d="m74.273438 74h16.226562c5.523438 0 10-4.476562 10-10s-4.476562-10-10-10h-16.226562c-5.523438 0-10 4.476562-10 10s4.476562 10 10 10zm0 0"/><path d="m35.605469 64c0-5.523438-4.476563-10-10-10h-15.105469c-5.523438 0-10 4.476562-10 10s4.476562 10 10 10h15.105469c5.523437 0 10-4.476562 10-10zm0 0"/><path d="m50.5 48.632812c5.523438 0 10-4.476562 10-10v-14.632812c0-5.523438-4.476562-10-10-10s-10 4.476562-10 10v14.632812c0 5.523438 4.476562 10 10 10zm0 0"/><path d="m50.5 114c5.523438 0 10-4.476562 10-10v-11.785156c0-5.519532-4.476562-10-10-10s-10 4.480468-10 10v11.785156c0 5.523438 4.476562 10 10 10zm0 0"/><path d="m265.949219 398c-2.628907 0-5.210938 1.070312-7.070313 2.929688-1.859375 1.859374-2.929687 4.441406-2.929687 7.070312s1.070312 5.210938 2.929687 7.070312c1.859375 1.859376 4.441406 2.929688 7.070313 2.929688 2.628906 0 5.210937-1.070312 7.070312-2.929688 1.859375-1.859374 2.929688-4.441406 2.929688-7.070312s-1.070313-5.210938-2.929688-7.070312c-1.859375-1.859376-4.441406-2.929688-7.070312-2.929688zm0 0"/><path d="m203.988281 129.078125c2.628907 0 5.210938-1.066406 7.070313-2.929687 1.871094-1.859376 2.929687-4.4375 2.929687-7.070313 0-2.628906-1.058593-5.207031-2.929687-7.066406-1.859375-1.863281-4.429688-2.933594-7.070313-2.933594-2.628906 0-5.210937 1.070313-7.070312 2.933594-1.859375 1.859375-2.929688 4.4375-2.929688 7.066406 0 2.632813 1.070313 5.210937 2.929688 7.070313 1.871093 1.863281 4.441406 2.929687 7.070312 2.929687zm0 0"/></svg>