<?xml version="1.0"?>
<svg xmlns="http://www.w3.org/2000/svg" height="512px" viewBox="0 0 512 512" width="512px"><g><path d="m452 120c33.085938 0 60-26.914062 60-60s-26.914062-60-60-60-60 26.914062-60 60 26.914062 60 60 60zm0-80c11.027344 0 20 8.972656 20 20s-8.972656 20-20 20-20-8.972656-20-20 8.972656-20 20-20zm-392 80c33.085938 0 60-26.914062 60-60s-26.914062-60-60-60-60 26.914062-60 60 26.914062 60 60 60zm0-80c11.027344 0 20 8.972656 20 20s-8.972656 20-20 20-20-8.972656-20-20 8.972656-20 20-20zm392.3125 99c-.097656 0-.195312 0-.292969 0-41.398437 0-57.09375 30.140625-66.984375 59.644531-3.363281 10.035157-10.664062 31.960938-15.457031 46.355469h-23.578125v-46c0-33.085938-26.914062-60-60-60h-60c-33.085938 0-60 26.914062-60 60v46h-23.578125c-4.792969-14.394531-12.09375-36.320312-15.457031-46.355469-9.894532-29.503906-25.582032-59.644531-66.984375-59.644531-.097657 0-.199219 0-.296875 0-32.910156.113281-59.683594 27.03125-59.683594 60v109c0 26.074219 16.722656 48.304688 40 56.558594v.441406c.515625 0 1.019531.039062 1.527344.078125 2.226562.722656 4.507812 1.320313 6.839844 1.78125 6.855468 3.171875 11.632812 10.101563 11.632812 18.140625v127h40v-127c0-5.902344-.871094-11.605469-2.46875-17h23.46875c11.027344 0 20 8.972656 20 20v124h40v-124c0-33.085938-26.914062-60-60-60h-61c-.515625 0-1.019531-.039062-1.527344-.078125-2.226562-.722656-4.507812-1.320313-6.839844-1.78125-6.855468-3.171875-11.632812-10.101563-11.632812-18.140625v-109c0-10.988281 8.894531-19.960938 19.824219-20 9.039062-.03125 18.34375-.0625 29.210937 32.355469 5.195313 15.496093 19.839844 59.515625 19.988282 59.957031l4.550781 13.6875h284.851562l4.550781-13.6875c.148438-.441406 14.792969-44.460938 19.988282-59.957031 10.863281-32.417969 20.171875-32.375 29.210937-32.355469 10.929688.039062 19.824219 9.011719 19.824219 20v109c0 8.039062-4.777344 14.96875-11.632812 18.140625-2.332032.460937-4.613282 1.058594-6.839844 1.78125-.507813.039063-1.011719.078125-1.527344.078125h-60c-33.085938 0-60 26.914062-60 60v124h40v-124c0-11.027344 8.972656-20 20-20h22.46875c-1.597656 5.394531-2.46875 11.097656-2.46875 17v127h40v-127c0-8.039062 4.777344-14.96875 11.632812-18.140625 2.332032-.460937 4.613282-1.058594 6.839844-1.78125.507813-.039063 1.011719-.078125 1.527344-.078125v-.441406c23.277344-8.253906 40-30.484375 40-56.558594v-109c0-32.96875-26.773438-59.886719-59.6875-60zm-246.3125 60c0-11.027344 8.972656-20 20-20h60c11.027344 0 20 8.972656 20 20v46h-100zm50-79c33.085938 0 60-26.914062 60-60s-26.914062-60-60-60-60 26.914062-60 60 26.914062 60 60 60zm0-80c11.027344 0 20 8.972656 20 20s-8.972656 20-20 20-20-8.972656-20-20 8.972656-20 20-20zm0 0" data-original="#000000" class="active-path" data-old_color="#000000" fill="#FFFFFF"/></g> </svg>
